<mxfile host="app.diagrams.net" agent="Mozilla/5.0 (Windows NT 10.0; Win64; x64) AppleWebKit/537.36 (KHTML, like Gecko) Chrome/137.0.0.0 Safari/537.36" version="27.1.6">
  <diagram id="C5RBs43oDa-KdzZeNtuy" name="Page-1">
    <mxGraphModel dx="2253" dy="783" grid="1" gridSize="10" guides="1" tooltips="1" connect="1" arrows="1" fold="1" page="1" pageScale="1" pageWidth="827" pageHeight="1169" math="0" shadow="0">
      <root>
        <mxCell id="WIyWlLk6GJQsqaUBKTNV-0" />
        <mxCell id="WIyWlLk6GJQsqaUBKTNV-1" parent="WIyWlLk6GJQsqaUBKTNV-0" />
        <mxCell id="zkfFHV4jXpPFQw0GAbJ--0" value="People" style="swimlane;fontStyle=2;align=center;verticalAlign=top;childLayout=stackLayout;horizontal=1;startSize=26;horizontalStack=0;resizeParent=1;resizeLast=0;collapsible=1;marginBottom=0;rounded=0;shadow=0;strokeWidth=1;" parent="WIyWlLk6GJQsqaUBKTNV-1" vertex="1">
          <mxGeometry x="-310" y="10" width="160" height="280" as="geometry">
            <mxRectangle x="230" y="140" width="160" height="26" as="alternateBounds" />
          </mxGeometry>
        </mxCell>
        <mxCell id="zkfFHV4jXpPFQw0GAbJ--3" value="+ nom_per&#xa;+ ape_per&#xa;+ fec_nac_per&#xa;+ tip_doc_per&#xa;+ doc_per&#xa;+ dir_per&#xa;+ cel_per&#xa;+ cel2_per&#xa;+ email_per&#xa;+ hash_pass&#xa;+ gen_per" style="text;align=left;verticalAlign=top;spacingLeft=4;spacingRight=4;overflow=hidden;rotatable=0;points=[[0,0.5],[1,0.5]];portConstraint=eastwest;rounded=0;shadow=0;html=0;textShadow=0;labelBorderColor=none;labelBackgroundColor=none;" parent="zkfFHV4jXpPFQw0GAbJ--0" vertex="1">
          <mxGeometry y="26" width="160" height="164" as="geometry" />
        </mxCell>
        <mxCell id="zkfFHV4jXpPFQw0GAbJ--4" value="" style="line;html=1;strokeWidth=1;align=left;verticalAlign=middle;spacingTop=-1;spacingLeft=3;spacingRight=3;rotatable=0;labelPosition=right;points=[];portConstraint=eastwest;" parent="zkfFHV4jXpPFQw0GAbJ--0" vertex="1">
          <mxGeometry y="190" width="160" height="8" as="geometry" />
        </mxCell>
        <mxCell id="zkfFHV4jXpPFQw0GAbJ--5" value="+ create()&#xa;+ modify()&#xa;+ findBy()&#xa;+ findAll()&#xa;+ delete()" style="text;align=left;verticalAlign=top;spacingLeft=4;spacingRight=4;overflow=hidden;rotatable=0;points=[[0,0.5],[1,0.5]];portConstraint=eastwest;" parent="zkfFHV4jXpPFQw0GAbJ--0" vertex="1">
          <mxGeometry y="198" width="160" height="70" as="geometry" />
        </mxCell>
        <mxCell id="wu6gf7TsBEP5RyK5lLeb-8" style="edgeStyle=orthogonalEdgeStyle;rounded=0;orthogonalLoop=1;jettySize=auto;html=1;startArrow=classic;startFill=1;" parent="WIyWlLk6GJQsqaUBKTNV-1" source="pOZBKXeJyLFg6Iv3QgTo-0" target="wu6gf7TsBEP5RyK5lLeb-0" edge="1">
          <mxGeometry relative="1" as="geometry">
            <Array as="points">
              <mxPoint x="-520" y="450" />
            </Array>
          </mxGeometry>
        </mxCell>
        <mxCell id="3wPjeXFRCsMRSDaVqMQH-33" style="edgeStyle=orthogonalEdgeStyle;rounded=0;orthogonalLoop=1;jettySize=auto;html=1;entryX=0.5;entryY=1;entryDx=0;entryDy=0;" edge="1" parent="WIyWlLk6GJQsqaUBKTNV-1" source="pOZBKXeJyLFg6Iv3QgTo-0" target="zkfFHV4jXpPFQw0GAbJ--0">
          <mxGeometry relative="1" as="geometry" />
        </mxCell>
        <mxCell id="pOZBKXeJyLFg6Iv3QgTo-0" value="Owner" style="swimlane;fontStyle=0;align=center;verticalAlign=top;childLayout=stackLayout;horizontal=1;startSize=26;horizontalStack=0;resizeParent=1;resizeLast=0;collapsible=1;marginBottom=0;rounded=0;shadow=0;strokeWidth=1;" parent="WIyWlLk6GJQsqaUBKTNV-1" vertex="1">
          <mxGeometry x="-370" y="350" width="160" height="140" as="geometry">
            <mxRectangle x="130" y="380" width="160" height="26" as="alternateBounds" />
          </mxGeometry>
        </mxCell>
        <mxCell id="pOZBKXeJyLFg6Iv3QgTo-3" value="" style="line;html=1;strokeWidth=1;align=left;verticalAlign=middle;spacingTop=-1;spacingLeft=3;spacingRight=3;rotatable=0;labelPosition=right;points=[];portConstraint=eastwest;" parent="pOZBKXeJyLFg6Iv3QgTo-0" vertex="1">
          <mxGeometry y="26" width="160" height="8" as="geometry" />
        </mxCell>
        <mxCell id="pOZBKXeJyLFg6Iv3QgTo-4" value="+ findByPet()&#xa;+ deleteOwner()" style="text;align=left;verticalAlign=top;spacingLeft=4;spacingRight=4;overflow=hidden;rotatable=0;points=[[0,0.5],[1,0.5]];portConstraint=eastwest;fontStyle=4" parent="pOZBKXeJyLFg6Iv3QgTo-0" vertex="1">
          <mxGeometry y="34" width="160" height="54" as="geometry" />
        </mxCell>
        <mxCell id="pOZBKXeJyLFg6Iv3QgTo-12" style="edgeStyle=orthogonalEdgeStyle;rounded=0;orthogonalLoop=1;jettySize=auto;html=1;entryX=0.5;entryY=1;entryDx=0;entryDy=0;" parent="WIyWlLk6GJQsqaUBKTNV-1" source="pOZBKXeJyLFg6Iv3QgTo-8" target="pOZBKXeJyLFg6Iv3QgTo-0" edge="1">
          <mxGeometry relative="1" as="geometry" />
        </mxCell>
        <mxCell id="wu6gf7TsBEP5RyK5lLeb-7" style="edgeStyle=orthogonalEdgeStyle;rounded=0;orthogonalLoop=1;jettySize=auto;html=1;" parent="WIyWlLk6GJQsqaUBKTNV-1" source="pOZBKXeJyLFg6Iv3QgTo-8" target="wu6gf7TsBEP5RyK5lLeb-0" edge="1">
          <mxGeometry relative="1" as="geometry">
            <Array as="points">
              <mxPoint x="-420" y="670" />
            </Array>
          </mxGeometry>
        </mxCell>
        <mxCell id="pOZBKXeJyLFg6Iv3QgTo-8" value="Pets" style="swimlane;fontStyle=0;align=center;verticalAlign=top;childLayout=stackLayout;horizontal=1;startSize=26;horizontalStack=0;resizeParent=1;resizeLast=0;collapsible=1;marginBottom=0;rounded=0;shadow=0;strokeWidth=1;" parent="WIyWlLk6GJQsqaUBKTNV-1" vertex="1">
          <mxGeometry x="-370" y="550" width="160" height="308" as="geometry">
            <mxRectangle x="130" y="380" width="160" height="26" as="alternateBounds" />
          </mxGeometry>
        </mxCell>
        <mxCell id="pOZBKXeJyLFg6Iv3QgTo-9" value="+ nom_mas&#xa;+ esp_mas&#xa;+ col_mas&#xa;+ raz_mas&#xa;+ ali_mas&#xa;+ fec_nac_mas&#xa;+ pes_mas&#xa;+ doc_per&#xa;+ gen_mas&#xa;+ est_rep_mas&#xa;+ fot_ma" style="text;align=left;verticalAlign=top;spacingLeft=4;spacingRight=4;overflow=hidden;rotatable=0;points=[[0,0.5],[1,0.5]];portConstraint=eastwest;rounded=0;shadow=0;html=0;" parent="pOZBKXeJyLFg6Iv3QgTo-8" vertex="1">
          <mxGeometry y="26" width="160" height="164" as="geometry" />
        </mxCell>
        <mxCell id="pOZBKXeJyLFg6Iv3QgTo-10" value="" style="line;html=1;strokeWidth=1;align=left;verticalAlign=middle;spacingTop=-1;spacingLeft=3;spacingRight=3;rotatable=0;labelPosition=right;points=[];portConstraint=eastwest;" parent="pOZBKXeJyLFg6Iv3QgTo-8" vertex="1">
          <mxGeometry y="190" width="160" height="8" as="geometry" />
        </mxCell>
        <mxCell id="pOZBKXeJyLFg6Iv3QgTo-11" value="+ create()&#xa;+ modify()&#xa;+ findBy()&#xa;+ findAll()&#xa;+ delete()" style="text;align=left;verticalAlign=top;spacingLeft=4;spacingRight=4;overflow=hidden;rotatable=0;points=[[0,0.5],[1,0.5]];portConstraint=eastwest;fontStyle=4" parent="pOZBKXeJyLFg6Iv3QgTo-8" vertex="1">
          <mxGeometry y="198" width="160" height="90" as="geometry" />
        </mxCell>
        <mxCell id="wu6gf7TsBEP5RyK5lLeb-0" value="Appointment" style="swimlane;fontStyle=0;align=center;verticalAlign=top;childLayout=stackLayout;horizontal=1;startSize=26;horizontalStack=0;resizeParent=1;resizeLast=0;collapsible=1;marginBottom=0;rounded=0;shadow=0;strokeWidth=1;" parent="WIyWlLk6GJQsqaUBKTNV-1" vertex="1">
          <mxGeometry x="-630" y="360" width="160" height="278" as="geometry">
            <mxRectangle x="130" y="380" width="160" height="26" as="alternateBounds" />
          </mxGeometry>
        </mxCell>
        <mxCell id="wu6gf7TsBEP5RyK5lLeb-1" value="+ id_cit&#xa;+ mas_cit+ fec_reg_cit&#xa;+ fec_cit&#xa;+ hor_ini_cit&#xa;+ hor_fin_cit&#xa;+ lug_ate_cit&#xa;+ ser_cit&#xa;+ vet_cit&#xa;+ mas_cit&#xa;+ estado" style="text;align=left;verticalAlign=top;spacingLeft=4;spacingRight=4;overflow=hidden;rotatable=0;points=[[0,0.5],[1,0.5]];portConstraint=eastwest;" parent="wu6gf7TsBEP5RyK5lLeb-0" vertex="1">
          <mxGeometry y="26" width="160" height="154" as="geometry" />
        </mxCell>
        <mxCell id="wu6gf7TsBEP5RyK5lLeb-2" value="" style="line;html=1;strokeWidth=1;align=left;verticalAlign=middle;spacingTop=-1;spacingLeft=3;spacingRight=3;rotatable=0;labelPosition=right;points=[];portConstraint=eastwest;" parent="wu6gf7TsBEP5RyK5lLeb-0" vertex="1">
          <mxGeometry y="180" width="160" height="8" as="geometry" />
        </mxCell>
        <mxCell id="wu6gf7TsBEP5RyK5lLeb-3" value="+ create()&#xa;+ modify()&#xa;+ findAll()&#xa;+ anular()" style="text;align=left;verticalAlign=top;spacingLeft=4;spacingRight=4;overflow=hidden;rotatable=0;points=[[0,0.5],[1,0.5]];portConstraint=eastwest;fontStyle=4" parent="wu6gf7TsBEP5RyK5lLeb-0" vertex="1">
          <mxGeometry y="188" width="160" height="90" as="geometry" />
        </mxCell>
        <mxCell id="3wPjeXFRCsMRSDaVqMQH-4" style="edgeStyle=orthogonalEdgeStyle;rounded=0;orthogonalLoop=1;jettySize=auto;html=1;" edge="1" parent="WIyWlLk6GJQsqaUBKTNV-1" source="3wPjeXFRCsMRSDaVqMQH-0" target="wu6gf7TsBEP5RyK5lLeb-0">
          <mxGeometry relative="1" as="geometry" />
        </mxCell>
        <mxCell id="3wPjeXFRCsMRSDaVqMQH-0" value="Services" style="swimlane;fontStyle=0;align=center;verticalAlign=top;childLayout=stackLayout;horizontal=1;startSize=26;horizontalStack=0;resizeParent=1;resizeLast=0;collapsible=1;marginBottom=0;rounded=0;shadow=0;strokeWidth=1;" vertex="1" parent="WIyWlLk6GJQsqaUBKTNV-1">
          <mxGeometry x="-630" y="740" width="160" height="278" as="geometry">
            <mxRectangle x="130" y="380" width="160" height="26" as="alternateBounds" />
          </mxGeometry>
        </mxCell>
        <mxCell id="3wPjeXFRCsMRSDaVqMQH-1" value="+ cat_ser&#xa;+ nom_ser&#xa;+ pre_ser&#xa;+ des_ser&#xa;+ sta_ser&#xa;+ tec_des_ser&#xa;+ des_cir&#xa;+ res_cir&#xa;+ com_cir&#xa;+ obv_ci" style="text;align=left;verticalAlign=top;spacingLeft=4;spacingRight=4;overflow=hidden;rotatable=0;points=[[0,0.5],[1,0.5]];portConstraint=eastwest;" vertex="1" parent="3wPjeXFRCsMRSDaVqMQH-0">
          <mxGeometry y="26" width="160" height="154" as="geometry" />
        </mxCell>
        <mxCell id="3wPjeXFRCsMRSDaVqMQH-2" value="" style="line;html=1;strokeWidth=1;align=left;verticalAlign=middle;spacingTop=-1;spacingLeft=3;spacingRight=3;rotatable=0;labelPosition=right;points=[];portConstraint=eastwest;" vertex="1" parent="3wPjeXFRCsMRSDaVqMQH-0">
          <mxGeometry y="180" width="160" height="8" as="geometry" />
        </mxCell>
        <mxCell id="3wPjeXFRCsMRSDaVqMQH-3" value="+ create()&#xa;+ modify()&#xa;+ findAll()&#xa;+ anular()" style="text;align=left;verticalAlign=top;spacingLeft=4;spacingRight=4;overflow=hidden;rotatable=0;points=[[0,0.5],[1,0.5]];portConstraint=eastwest;fontStyle=4" vertex="1" parent="3wPjeXFRCsMRSDaVqMQH-0">
          <mxGeometry y="188" width="160" height="90" as="geometry" />
        </mxCell>
        <mxCell id="3wPjeXFRCsMRSDaVqMQH-32" style="edgeStyle=orthogonalEdgeStyle;rounded=0;orthogonalLoop=1;jettySize=auto;html=1;entryX=0.5;entryY=1;entryDx=0;entryDy=0;" edge="1" parent="WIyWlLk6GJQsqaUBKTNV-1" source="3wPjeXFRCsMRSDaVqMQH-11" target="zkfFHV4jXpPFQw0GAbJ--0">
          <mxGeometry relative="1" as="geometry">
            <Array as="points">
              <mxPoint x="-60" y="320" />
              <mxPoint x="-230" y="320" />
            </Array>
          </mxGeometry>
        </mxCell>
        <mxCell id="3wPjeXFRCsMRSDaVqMQH-11" value="Staff" style="swimlane;fontStyle=0;align=center;verticalAlign=top;childLayout=stackLayout;horizontal=1;startSize=26;horizontalStack=0;resizeParent=1;resizeLast=0;collapsible=1;marginBottom=0;rounded=0;shadow=0;strokeWidth=1;" vertex="1" parent="WIyWlLk6GJQsqaUBKTNV-1">
          <mxGeometry x="-140" y="370" width="160" height="130" as="geometry">
            <mxRectangle x="130" y="380" width="160" height="26" as="alternateBounds" />
          </mxGeometry>
        </mxCell>
        <mxCell id="3wPjeXFRCsMRSDaVqMQH-12" value="+ esp_per&#xa;+ num_tar_per&#xa;+ fot_tar_vet&#xa;+ fot_vet" style="text;align=left;verticalAlign=top;spacingLeft=4;spacingRight=4;overflow=hidden;rotatable=0;points=[[0,0.5],[1,0.5]];portConstraint=eastwest;rounded=0;shadow=0;html=0;" vertex="1" parent="3wPjeXFRCsMRSDaVqMQH-11">
          <mxGeometry y="26" width="160" height="64" as="geometry" />
        </mxCell>
        <mxCell id="3wPjeXFRCsMRSDaVqMQH-13" value="" style="line;html=1;strokeWidth=1;align=left;verticalAlign=middle;spacingTop=-1;spacingLeft=3;spacingRight=3;rotatable=0;labelPosition=right;points=[];portConstraint=eastwest;" vertex="1" parent="3wPjeXFRCsMRSDaVqMQH-11">
          <mxGeometry y="90" width="160" height="8" as="geometry" />
        </mxCell>
        <mxCell id="3wPjeXFRCsMRSDaVqMQH-14" value="+ createStaff()" style="text;align=left;verticalAlign=top;spacingLeft=4;spacingRight=4;overflow=hidden;rotatable=0;points=[[0,0.5],[1,0.5]];portConstraint=eastwest;fontStyle=4" vertex="1" parent="3wPjeXFRCsMRSDaVqMQH-11">
          <mxGeometry y="98" width="160" height="32" as="geometry" />
        </mxCell>
        <mxCell id="3wPjeXFRCsMRSDaVqMQH-21" value="1" style="text;html=1;align=center;verticalAlign=middle;resizable=0;points=[];autosize=1;strokeColor=none;fillColor=none;" vertex="1" parent="WIyWlLk6GJQsqaUBKTNV-1">
          <mxGeometry x="-230" y="290" width="30" height="30" as="geometry" />
        </mxCell>
        <mxCell id="3wPjeXFRCsMRSDaVqMQH-22" value="1" style="text;html=1;align=center;verticalAlign=middle;resizable=0;points=[];autosize=1;strokeColor=none;fillColor=none;" vertex="1" parent="WIyWlLk6GJQsqaUBKTNV-1">
          <mxGeometry x="-290" y="330" width="30" height="30" as="geometry" />
        </mxCell>
        <mxCell id="3wPjeXFRCsMRSDaVqMQH-23" value="1" style="text;html=1;align=center;verticalAlign=middle;resizable=0;points=[];autosize=1;strokeColor=none;fillColor=none;" vertex="1" parent="WIyWlLk6GJQsqaUBKTNV-1">
          <mxGeometry x="-290" y="484" width="30" height="30" as="geometry" />
        </mxCell>
        <mxCell id="3wPjeXFRCsMRSDaVqMQH-24" value="n" style="text;html=1;align=center;verticalAlign=middle;resizable=0;points=[];autosize=1;strokeColor=none;fillColor=none;" vertex="1" parent="WIyWlLk6GJQsqaUBKTNV-1">
          <mxGeometry x="-290" y="530" width="30" height="30" as="geometry" />
        </mxCell>
        <mxCell id="3wPjeXFRCsMRSDaVqMQH-25" value="n" style="text;html=1;align=center;verticalAlign=middle;resizable=0;points=[];autosize=1;strokeColor=none;fillColor=none;" vertex="1" parent="WIyWlLk6GJQsqaUBKTNV-1">
          <mxGeometry x="-480" y="390" width="30" height="30" as="geometry" />
        </mxCell>
        <mxCell id="3wPjeXFRCsMRSDaVqMQH-26" value="n" style="text;html=1;align=center;verticalAlign=middle;resizable=0;points=[];autosize=1;strokeColor=none;fillColor=none;" vertex="1" parent="WIyWlLk6GJQsqaUBKTNV-1">
          <mxGeometry x="-470" y="470" width="30" height="30" as="geometry" />
        </mxCell>
        <mxCell id="3wPjeXFRCsMRSDaVqMQH-27" value="1" style="text;html=1;align=center;verticalAlign=middle;resizable=0;points=[];autosize=1;strokeColor=none;fillColor=none;" vertex="1" parent="WIyWlLk6GJQsqaUBKTNV-1">
          <mxGeometry x="-400" y="638" width="30" height="30" as="geometry" />
        </mxCell>
        <mxCell id="3wPjeXFRCsMRSDaVqMQH-28" value="1" style="text;html=1;align=center;verticalAlign=middle;resizable=0;points=[];autosize=1;strokeColor=none;fillColor=none;" vertex="1" parent="WIyWlLk6GJQsqaUBKTNV-1">
          <mxGeometry x="-550" y="638" width="30" height="30" as="geometry" />
        </mxCell>
        <mxCell id="3wPjeXFRCsMRSDaVqMQH-29" value="1" style="text;html=1;align=center;verticalAlign=middle;resizable=0;points=[];autosize=1;strokeColor=none;fillColor=none;" vertex="1" parent="WIyWlLk6GJQsqaUBKTNV-1">
          <mxGeometry x="-550" y="710" width="30" height="30" as="geometry" />
        </mxCell>
        <mxCell id="3wPjeXFRCsMRSDaVqMQH-30" value="1" style="text;html=1;align=center;verticalAlign=middle;resizable=0;points=[];autosize=1;strokeColor=none;fillColor=none;" vertex="1" parent="WIyWlLk6GJQsqaUBKTNV-1">
          <mxGeometry x="-60" y="340" width="30" height="30" as="geometry" />
        </mxCell>
        <mxCell id="3wPjeXFRCsMRSDaVqMQH-34" value="1" style="text;html=1;align=center;verticalAlign=middle;resizable=0;points=[];autosize=1;strokeColor=none;fillColor=none;" vertex="1" parent="WIyWlLk6GJQsqaUBKTNV-1">
          <mxGeometry x="-400" y="390" width="30" height="30" as="geometry" />
        </mxCell>
      </root>
    </mxGraphModel>
  </diagram>
</mxfile>
